<svg xmlns="http://www.w3.org/2000/svg" xmlns:xlink="http://www.w3.org/1999/xlink" width="42.956" height="46.522" viewBox="0 0 42.956 46.522">
  <defs>
    <style>
      .cls-1 {
        fill: rgba(0,0,0,0.6);
      }

      .cls-2 {
        filter: url(#building);
      }
    </style>
    <filter id="building" x="0" y="0" width="42.956" height="46.522" filterUnits="userSpaceOnUse">
      <feOffset dy="3" input="SourceAlpha"/>
      <feGaussianBlur stdDeviation="3" result="blur"/>
      <feFlood flood-opacity="0.157"/>
      <feComposite operator="in" in2="blur"/>
      <feComposite in="SourceGraphic"/>
    </filter>
  </defs>
  <g class="cls-2" transform="matrix(1, 0, 0, 1, 0, 0)">
    <path id="building-2" data-name="building" class="cls-1" d="M24.288,26.739H23.174V1.337A1.337,1.337,0,0,0,21.837,0H3.12A1.337,1.337,0,0,0,1.783,1.337v25.4H.668A.669.669,0,0,0,0,27.407v1.114H24.956V27.407A.669.669,0,0,0,24.288,26.739ZM7.13,4.234A.669.669,0,0,1,7.8,3.565h2.228a.669.669,0,0,1,.668.668V6.462a.669.669,0,0,1-.668.668H7.8a.669.669,0,0,1-.668-.668Zm0,5.348A.669.669,0,0,1,7.8,8.913h2.228a.669.669,0,0,1,.668.668V11.81a.669.669,0,0,1-.668.668H7.8a.669.669,0,0,1-.668-.668Zm2.9,8.245H7.8a.669.669,0,0,1-.668-.668V14.929a.669.669,0,0,1,.668-.668h2.228a.669.669,0,0,1,.668.668v2.228A.669.669,0,0,1,10.027,17.826Zm4.234,8.913H10.7V22.06a.669.669,0,0,1,.668-.668h2.228a.669.669,0,0,1,.668.668Zm3.565-9.581a.669.669,0,0,1-.668.668H14.929a.669.669,0,0,1-.668-.668V14.929a.669.669,0,0,1,.668-.668h2.228a.669.669,0,0,1,.668.668Zm0-5.348a.669.669,0,0,1-.668.668H14.929a.669.669,0,0,1-.668-.668V9.581a.669.669,0,0,1,.668-.668h2.228a.669.669,0,0,1,.668.668Zm0-5.348a.669.669,0,0,1-.668.668H14.929a.669.669,0,0,1-.668-.668V4.234a.669.669,0,0,1,.668-.668h2.228a.669.669,0,0,1,.668.668Z" transform="translate(9 6)"/>
  </g>
</svg>
