<svg xmlns="http://www.w3.org/2000/svg" width="30.881" height="29.064" viewBox="0 0 30.881 29.064">
  <defs>
    <style>
      .cls-1 {
        fill: rgba(0,0,0,0.6);
      }
    </style>
  </defs>
  <path id="chart-pie" class="cls-1" d="M29.959,16.352H16.489l8.971,8.971a.911.911,0,0,0,1.26.039,13.6,13.6,0,0,0,4.151-8,.91.91,0,0,0-.912-1.013Zm-.9-3.678A13.656,13.656,0,0,0,16.392.006a.913.913,0,0,0-.954.92v12.7h12.7A.913.913,0,0,0,29.06,12.674ZM12.714,16.352V2.882A.91.91,0,0,0,11.7,1.971,13.614,13.614,0,0,0,.006,15.919,13.792,13.792,0,0,0,13.794,29.067a13.518,13.518,0,0,0,7.678-2.5.9.9,0,0,0,.089-1.367Z" transform="translate(0.002 -0.004)"/>
</svg>
