<svg xmlns="http://www.w3.org/2000/svg" width="27.866" height="20.899" viewBox="0 0 27.866 20.899">
  <defs>
    <style>
      .cls-1 {
        fill: rgba(0,0,0,0.6);
      }
    </style>
  </defs>
  <path id="chart-bar" class="cls-1" d="M21.6,79.674h1.219a.749.749,0,0,0,.7-.7V66.438a.749.749,0,0,0-.7-.7H21.6a.749.749,0,0,0-.7.7v12.54A.749.749,0,0,0,21.6,79.674Zm-10.45,0h1.219a.749.749,0,0,0,.7-.7V68.18a.749.749,0,0,0-.7-.7H11.146a.749.749,0,0,0-.7.7v10.8A.749.749,0,0,0,11.146,79.674Zm5.225,0H17.59a.749.749,0,0,0,.7-.7V71.663a.749.749,0,0,0-.7-.7H16.371a.749.749,0,0,0-.7.7v7.315A.749.749,0,0,0,16.371,79.674Zm10.624,2.612H2.612V64.871A.871.871,0,0,0,1.742,64H.871A.871.871,0,0,0,0,64.871V83.158A1.742,1.742,0,0,0,1.742,84.9H26.995a.871.871,0,0,0,.871-.871v-.871A.871.871,0,0,0,26.995,82.287ZM5.921,79.674H7.141a.749.749,0,0,0,.7-.7V75.146a.749.749,0,0,0-.7-.7H5.921a.749.749,0,0,0-.7.7v3.832A.749.749,0,0,0,5.921,79.674Z" transform="translate(0 -64)"/>
</svg>
