<svg xmlns="http://www.w3.org/2000/svg" width="25.677" height="25.677" viewBox="0 0 25.677 25.677">
  <defs>
    <style>
      .cls-1 {
        fill: rgba(0,0,0,0.6);
      }
    </style>
  </defs>
  <path id="eject" class="cls-1" d="M25.677,52.175v3.668a1.834,1.834,0,0,1-1.834,1.834H1.834A1.834,1.834,0,0,1,0,55.844V52.175a1.834,1.834,0,0,1,1.834-1.834H23.843A1.834,1.834,0,0,1,25.677,52.175ZM2.754,48.507H22.923a2.753,2.753,0,0,0,2.028-4.61L14.867,32.892a2.752,2.752,0,0,0-4.056,0L.726,43.9A2.753,2.753,0,0,0,2.754,48.507Z" transform="translate(0 -32)"/>
</svg>
