<svg xmlns="http://www.w3.org/2000/svg" width="21.387" height="28.516" viewBox="0 0 21.387 28.516">
  <defs>
    <style>
      .cls-1 {
        fill: rgba(0,0,0,0.6);
      }
    </style>
  </defs>
  <path id="file-alt" class="cls-1" d="M12.476,7.575V0H1.337A1.333,1.333,0,0,0,0,1.337V27.179a1.333,1.333,0,0,0,1.337,1.337H20.05a1.333,1.333,0,0,0,1.337-1.337V8.911H13.812A1.341,1.341,0,0,1,12.476,7.575ZM16.04,20.719a.67.67,0,0,1-.668.668H6.015a.67.67,0,0,1-.668-.668v-.446a.67.67,0,0,1,.668-.668h9.357a.67.67,0,0,1,.668.668Zm0-3.565a.67.67,0,0,1-.668.668H6.015a.67.67,0,0,1-.668-.668v-.446a.67.67,0,0,1,.668-.668h9.357a.67.67,0,0,1,.668.668Zm0-4.01v.446a.67.67,0,0,1-.668.668H6.015a.67.67,0,0,1-.668-.668v-.446a.67.67,0,0,1,.668-.668h9.357A.67.67,0,0,1,16.04,13.144Zm5.347-6.355v.34H14.258V0h.34a1.336,1.336,0,0,1,.947.39L21,5.848A1.332,1.332,0,0,1,21.387,6.789Z"/>
</svg>
