<svg xmlns="http://www.w3.org/2000/svg" width="21.812" height="29.082" viewBox="0 0 21.812 29.082">
  <defs>
    <style>
      .cls-1 {
        fill: rgba(0,0,0,0.6);
      }
    </style>
  </defs>
  <path id="hourglass-half" class="cls-1" d="M20.448,0H1.363A1.363,1.363,0,0,0,0,1.363v.909A1.363,1.363,0,0,0,1.363,3.635c0,5.167,2.9,9.527,6.864,10.906C4.261,15.919,1.363,20.28,1.363,25.447A1.363,1.363,0,0,0,0,26.81v.909a1.363,1.363,0,0,0,1.363,1.363H20.448a1.363,1.363,0,0,0,1.363-1.363V26.81a1.363,1.363,0,0,0-1.363-1.363c0-5.167-2.9-9.527-6.864-10.906,3.966-1.378,6.864-5.739,6.864-10.906a1.363,1.363,0,0,0,1.363-1.363V1.363A1.363,1.363,0,0,0,20.448,0ZM16.184,21.812H5.628c.969-2.658,2.959-4.544,5.278-4.544S15.215,19.153,16.184,21.812Zm0-14.541H5.628A10.657,10.657,0,0,1,5,3.635H16.813A10.658,10.658,0,0,1,16.185,7.271Z"/>
</svg>
