<svg xmlns="http://www.w3.org/2000/svg" width="20.789" height="27.719" viewBox="0 0 20.789 27.719">
  <defs>
    <style>
      .cls-1 {
        fill: rgba(0,0,0,0.6);
      }
    </style>
  </defs>
  <path id="hourglass-start" class="cls-1" d="M19.49,0H1.3A1.3,1.3,0,0,0,0,1.3v.866a1.3,1.3,0,0,0,1.3,1.3c0,4.925,2.762,9.081,6.542,10.395C4.061,15.173,1.3,19.329,1.3,24.254a1.3,1.3,0,0,0-1.3,1.3v.866a1.3,1.3,0,0,0,1.3,1.3H19.49a1.3,1.3,0,0,0,1.3-1.3v-.866a1.3,1.3,0,0,0-1.3-1.3c0-4.925-2.762-9.081-6.542-10.395,3.78-1.314,6.542-5.47,6.542-10.395a1.3,1.3,0,0,0,1.3-1.3V1.3A1.3,1.3,0,0,0,19.49,0ZM16.025,24.254H4.764c0-4.193,2.5-7.8,5.63-7.8S16.025,20.059,16.025,24.254Z"/>
</svg>
