<svg xmlns="http://www.w3.org/2000/svg" xmlns:xlink="http://www.w3.org/1999/xlink" width="46.14" height="40.11" viewBox="0 0 46.14 40.11">
  <defs>
    <style>
      .cls-1 {
        fill: rgba(0,0,0,0.6);
        stroke: #707070;
      }

      .cls-2 {
        filter: url(#Icon_awesome-city);
      }
    </style>
    <filter id="Icon_awesome-city" x="0" y="0" width="46.14" height="40.11" filterUnits="userSpaceOnUse">
      <feOffset dy="3" input="SourceAlpha"/>
      <feGaussianBlur stdDeviation="3" result="blur"/>
      <feFlood flood-opacity="0.157"/>
      <feComposite operator="in" in2="blur"/>
      <feComposite in="SourceGraphic"/>
    </filter>
  </defs>
  <g class="cls-2" transform="matrix(1, 0, 0, 1, 0, 0)">
    <path id="Icon_awesome-city-2" data-name="Icon awesome-city" class="cls-1" d="M26.122,7.916H20.355V.99A1,1,0,0,0,19.337,0H13.231a1,1,0,0,0-1.018.99V3.958H9.5V.66A.669.669,0,0,0,8.82,0H8.142a.669.669,0,0,0-.678.66v3.3H4.749V.66A.669.669,0,0,0,4.071,0H3.392a.669.669,0,0,0-.678.66v3.3h-1.7A1,1,0,0,0,0,4.948V19.791A1.339,1.339,0,0,0,1.357,21.11H25.783a1.339,1.339,0,0,0,1.357-1.319V8.906A1,1,0,0,0,26.122,7.916ZM5.428,16.657a.5.5,0,0,1-.509.495h-1.7a.5.5,0,0,1-.509-.495V15.008a.5.5,0,0,1,.509-.495h1.7a.5.5,0,0,1,.509.495Zm0-3.958a.5.5,0,0,1-.509.495h-1.7a.5.5,0,0,1-.509-.495V11.05a.5.5,0,0,1,.509-.495h1.7a.5.5,0,0,1,.509.495Zm0-3.958a.5.5,0,0,1-.509.495h-1.7a.5.5,0,0,1-.509-.495V7.092A.5.5,0,0,1,3.223,6.6h1.7a.5.5,0,0,1,.509.495Zm5.428,7.916a.5.5,0,0,1-.509.495h-1.7a.5.5,0,0,1-.509-.495V15.008a.5.5,0,0,1,.509-.495h1.7a.5.5,0,0,1,.509.495Zm0-3.958a.5.5,0,0,1-.509.495h-1.7a.5.5,0,0,1-.509-.495V11.05a.5.5,0,0,1,.509-.495h1.7a.5.5,0,0,1,.509.495Zm0-3.958a.5.5,0,0,1-.509.495h-1.7a.5.5,0,0,1-.509-.495V7.092A.5.5,0,0,1,8.651,6.6h1.7a.5.5,0,0,1,.509.495ZM17.641,12.7a.5.5,0,0,1-.509.495h-1.7a.5.5,0,0,1-.509-.495V11.05a.5.5,0,0,1,.509-.495h1.7a.5.5,0,0,1,.509.495Zm0-3.958a.5.5,0,0,1-.509.495h-1.7a.5.5,0,0,1-.509-.495V7.092a.5.5,0,0,1,.509-.495h1.7a.5.5,0,0,1,.509.495Zm0-3.958a.5.5,0,0,1-.509.495h-1.7a.5.5,0,0,1-.509-.495V3.134a.5.5,0,0,1,.509-.495h1.7a.5.5,0,0,1,.509.495Zm6.785,11.874a.5.5,0,0,1-.509.495h-1.7a.5.5,0,0,1-.509-.495V15.008a.5.5,0,0,1,.509-.495h1.7a.5.5,0,0,1,.509.495Zm0-3.958a.5.5,0,0,1-.509.495h-1.7a.5.5,0,0,1-.509-.495V11.05a.5.5,0,0,1,.509-.495h1.7a.5.5,0,0,1,.509.495Z" transform="translate(9.5 6.5)"/>
  </g>
</svg>
