<svg xmlns="http://www.w3.org/2000/svg" width="30.078" height="30.076" viewBox="0 0 30.078 30.076">
  <defs>
    <style>
      .cls-1 {
        fill: rgba(0,0,0,0.6);
      }
    </style>
  </defs>
  <path id="paper-plane" class="cls-1" d="M25.887.405,1.451,14.5a2.82,2.82,0,0,0,.335,5.046L8.5,22.322v4.958a2.823,2.823,0,0,0,5.087,1.68l2.573-3.472L22.733,28.2A2.826,2.826,0,0,0,26.6,26.022L30.087,3.278a2.825,2.825,0,0,0-4.2-2.872ZM11.319,27.279V23.485l2.15.887Zm12.488-1.686-9.034-3.73L23.009,9.98a.942.942,0,0,0-1.392-1.245L9.193,19.561l-6.332-2.62L27.3,2.843Z" transform="translate(-0.043 -0.025)"/>
</svg>
