<svg xmlns="http://www.w3.org/2000/svg" width="25.124" height="25.124" viewBox="0 0 25.124 25.124">
  <defs>
    <style>
      .cls-1 {
        fill: rgba(0,0,0,0.6);
      }
    </style>
  </defs>
  <path id="phone-square" class="cls-1" d="M22.432,32H2.692A2.692,2.692,0,0,0,0,34.692v19.74a2.692,2.692,0,0,0,2.692,2.692h19.74a2.692,2.692,0,0,0,2.692-2.692V34.692A2.692,2.692,0,0,0,22.432,32ZM5.271,53.534a.841.841,0,0,1-.82-.652l-.841-3.645a.841.841,0,0,1,.488-.962l3.925-1.682a.841.841,0,0,1,.982.241l1.738,2.125a13,13,0,0,0,6.213-6.212l-2.125-1.738a.841.841,0,0,1-.241-.982L16.275,36.1a.841.841,0,0,1,.962-.488l3.645.841a.841.841,0,0,1,.652.82A16.262,16.262,0,0,1,5.271,53.534Z" transform="translate(0 -32)"/>
</svg>
