<svg xmlns="http://www.w3.org/2000/svg" width="20.833" height="27.778" viewBox="0 0 20.833 27.778">
  <defs>
    <style>
      .cls-1 {
        fill: rgba(0,0,0,0.6);
      }
    </style>
  </defs>
  <path id="phone-volume" class="cls-1" d="M5.28,27.5a18.027,18.027,0,0,1,0-25.5.933.933,0,0,1,1.154-.131l3.517,2.2a.932.932,0,0,1,.372,1.137l-1.758,4.4a.932.932,0,0,1-.959.582l-3.028-.3a14.411,14.411,0,0,0,0,9.739l3.028-.3a.932.932,0,0,1,.959.582l1.758,4.4a.933.933,0,0,1-.372,1.137l-3.517,2.2A.933.933,0,0,1,5.28,27.5ZM13.407,5.18a3.475,3.475,0,0,1,0,3.529.654.654,0,0,1-1.016.14l-.324-.311a.656.656,0,0,1-.123-.782,1.74,1.74,0,0,0,0-1.625.656.656,0,0,1,.123-.782l.324-.311A.654.654,0,0,1,13.407,5.18ZM18.387.233a10.431,10.431,0,0,1,0,13.424.653.653,0,0,1-.952.051l-.315-.3a.652.652,0,0,1-.05-.889,8.693,8.693,0,0,0,0-11.145.652.652,0,0,1,.05-.889l.315-.3a.653.653,0,0,1,.952.051ZM15.893,2.671a6.955,6.955,0,0,1,0,8.547.654.654,0,0,1-.969.071l-.316-.3a.651.651,0,0,1-.07-.864,5.215,5.215,0,0,0,0-6.355.651.651,0,0,1,.07-.864l.316-.3a.654.654,0,0,1,.969.071Z" transform="translate(0 0)"/>
</svg>
