<svg xmlns="http://www.w3.org/2000/svg" width="24.819" height="24.819" viewBox="0 0 24.819 24.819">
  <defs>
    <style>
      .cls-1 {
        fill: rgba(0,0,0,0.6);
      }
    </style>
  </defs>
  <path id="save" class="cls-1" d="M24.04,37.426l-4.647-4.647A2.659,2.659,0,0,0,17.513,32H2.659A2.659,2.659,0,0,0,0,34.659v19.5a2.659,2.659,0,0,0,2.659,2.659h19.5a2.659,2.659,0,0,0,2.659-2.659V39.306a2.659,2.659,0,0,0-.779-1.88ZM12.41,53.274a3.546,3.546,0,1,1,3.546-3.546A3.546,3.546,0,0,1,12.41,53.274ZM17.728,36.4v5.569a.665.665,0,0,1-.665.665H4.21a.665.665,0,0,1-.665-.665V36.21a.665.665,0,0,1,.665-.665h12.66a.665.665,0,0,1,.47.195l.193.193a.665.665,0,0,1,.195.47Z" transform="translate(0 -32)"/>
</svg>
