<svg aria-hidden="true" style="position: absolute; width: 0; height: 0; overflow: hidden;" version="1.1" xmlns="http://www.w3.org/2000/svg" xmlns:xlink="http://www.w3.org/1999/xlink">
<defs>
<symbol id="icon-note-important" viewBox="0 0 32 32">
<path d="M5 11h23v9h-4.994c-1.108 0-2.006 0.887-2.006 1.998v6.002h-14.006c-1.101 0-1.994-0.902-1.994-2.001v-14.999zM5 10v-2.999c0-1.105 0.902-2.001 2.001-2.001h18.998c1.105 0 2.001 0.893 2.001 1.992v3.008h-23zM22 28v-5.997c0-0.554 0.451-1.003 0.991-1.003h5.009l-6 7zM16 14v6h1v-6h-1zM16 23v1h1v-1h-1z"></path>
</symbol>
<symbol id="icon-document-text" viewBox="0 0 32 32">
<path d="M19 3v6.002c0 1.111 0.898 1.998 2.006 1.998h4.994v17.003c0 1.107-0.894 1.997-1.997 1.997h-15.005c-1.107 0-1.997-0.899-1.997-2.007v-22.985c0-1.109 0.899-2.007 2.009-2.007h9.991zM20 3v5.997c0 0.554 0.451 1.003 0.991 1.003h5.009l-6-7zM10 10v1h7v-1h-7zM10 7v1h7v-1h-7zM10 13v1h13v-1h-13zM10 16v1h13v-1h-13zM10 19v1h13v-1h-13zM10 22v1h13v-1h-13zM10 25v1h13v-1h-13z"></path>
</symbol>
<symbol id="icon-search" viewBox="0 0 32 32">
<path d="M31.008 27.231l-7.58-6.447c-0.784-0.705-1.622-1.029-2.299-0.998 1.789-2.096 2.87-4.815 2.87-7.787 0-6.627-5.373-12-12-12s-12 5.373-12 12 5.373 12 12 12c2.972 0 5.691-1.081 7.787-2.87-0.031 0.677 0.293 1.515 0.998 2.299l6.447 7.58c1.104 1.226 2.907 1.33 4.007 0.23s0.997-2.903-0.23-4.007zM12 20c-4.418 0-8-3.582-8-8s3.582-8 8-8 8 3.582 8 8-3.582 8-8 8z"></path>
</symbol>
<symbol id="icon-heart" viewBox="0 0 28 28">
<path d="M14 26c-0.25 0-0.5-0.094-0.688-0.281l-9.75-9.406c-0.125-0.109-3.563-3.25-3.563-7 0-4.578 2.797-7.313 7.469-7.313 2.734 0 5.297 2.156 6.531 3.375 1.234-1.219 3.797-3.375 6.531-3.375 4.672 0 7.469 2.734 7.469 7.313 0 3.75-3.437 6.891-3.578 7.031l-9.734 9.375c-0.187 0.187-0.438 0.281-0.688 0.281z"></path>
</symbol>
<symbol id="icon-edit" viewBox="0 0 28 28">
<path d="M13.875 18.5l1.813-1.813-2.375-2.375-1.813 1.813v0.875h1.5v1.5h0.875zM20.75 7.25c-0.141-0.141-0.375-0.125-0.516 0.016l-5.469 5.469c-0.141 0.141-0.156 0.375-0.016 0.516s0.375 0.125 0.516-0.016l5.469-5.469c0.141-0.141 0.156-0.375 0.016-0.516zM22 16.531v2.969c0 2.484-2.016 4.5-4.5 4.5h-13c-2.484 0-4.5-2.016-4.5-4.5v-13c0-2.484 2.016-4.5 4.5-4.5h13c0.625 0 1.25 0.125 1.828 0.391 0.141 0.063 0.25 0.203 0.281 0.359 0.031 0.172-0.016 0.328-0.141 0.453l-0.766 0.766c-0.141 0.141-0.328 0.187-0.5 0.125-0.234-0.063-0.469-0.094-0.703-0.094h-13c-1.375 0-2.5 1.125-2.5 2.5v13c0 1.375 1.125 2.5 2.5 2.5h13c1.375 0 2.5-1.125 2.5-2.5v-1.969c0-0.125 0.047-0.25 0.141-0.344l1-1c0.156-0.156 0.359-0.187 0.547-0.109s0.313 0.25 0.313 0.453zM20.5 5l4.5 4.5-10.5 10.5h-4.5v-4.5zM27.438 7.063l-1.437 1.437-4.5-4.5 1.437-1.437c0.578-0.578 1.547-0.578 2.125 0l2.375 2.375c0.578 0.578 0.578 1.547 0 2.125z"></path>
</symbol>
<symbol id="icon-paperclip" viewBox="0 0 22 28">
<path d="M21.938 21.641c0 2.438-1.859 4.297-4.297 4.297-1.375 0-2.703-0.594-3.672-1.563l-12.141-12.125c-1.109-1.125-1.766-2.656-1.766-4.234 0-3.313 2.609-5.953 5.922-5.953 1.594 0 3.125 0.641 4.266 1.766l9.453 9.469c0.094 0.094 0.156 0.219 0.156 0.344 0 0.328-0.875 1.203-1.203 1.203-0.141 0-0.266-0.063-0.359-0.156l-9.469-9.484c-0.75-0.734-1.766-1.203-2.828-1.203-2.219 0-3.938 1.797-3.938 4 0 1.062 0.438 2.078 1.188 2.828l12.125 12.141c0.594 0.594 1.422 0.984 2.266 0.984 1.328 0 2.312-0.984 2.312-2.312 0-0.859-0.391-1.672-0.984-2.266l-9.078-9.078c-0.25-0.234-0.594-0.375-0.938-0.375-0.594 0-1.047 0.438-1.047 1.047 0 0.344 0.156 0.672 0.391 0.922l6.406 6.406c0.094 0.094 0.156 0.219 0.156 0.344 0 0.328-0.891 1.219-1.219 1.219-0.125 0-0.25-0.063-0.344-0.156l-6.406-6.406c-0.625-0.609-0.984-1.469-0.984-2.328 0-1.719 1.344-3.062 3.063-3.062 0.875 0 1.719 0.359 2.328 0.984l9.078 9.078c0.984 0.969 1.563 2.297 1.563 3.672z"></path>
</symbol>
<symbol id="icon-file-text" viewBox="0 0 24 28">
<path d="M22.937 7.438c0.156 0.156 0.297 0.344 0.438 0.562h-7.375v-7.375c0.219 0.141 0.406 0.281 0.562 0.438zM15.5 10h8.5v16.5c0 0.828-0.672 1.5-1.5 1.5h-21c-0.828 0-1.5-0.672-1.5-1.5v-25c0-0.828 0.672-1.5 1.5-1.5h12.5v8.5c0 0.828 0.672 1.5 1.5 1.5zM18 21.5v-1c0-0.281-0.219-0.5-0.5-0.5h-11c-0.281 0-0.5 0.219-0.5 0.5v1c0 0.281 0.219 0.5 0.5 0.5h11c0.281 0 0.5-0.219 0.5-0.5zM18 17.5v-1c0-0.281-0.219-0.5-0.5-0.5h-11c-0.281 0-0.5 0.219-0.5 0.5v1c0 0.281 0.219 0.5 0.5 0.5h11c0.281 0 0.5-0.219 0.5-0.5zM18 13.5v-1c0-0.281-0.219-0.5-0.5-0.5h-11c-0.281 0-0.5 0.219-0.5 0.5v1c0 0.281 0.219 0.5 0.5 0.5h11c0.281 0 0.5-0.219 0.5-0.5z"></path>
</symbol>
<symbol id="icon-building" viewBox="0 0 22 28">
<path d="M21 0c0.547 0 1 0.453 1 1v26c0 0.547-0.453 1-1 1h-20c-0.547 0-1-0.453-1-1v-26c0-0.547 0.453-1 1-1h20zM8 4.5v1c0 0.281 0.219 0.5 0.5 0.5h1c0.281 0 0.5-0.219 0.5-0.5v-1c0-0.281-0.219-0.5-0.5-0.5h-1c-0.281 0-0.5 0.219-0.5 0.5zM8 8.5v1c0 0.281 0.219 0.5 0.5 0.5h1c0.281 0 0.5-0.219 0.5-0.5v-1c0-0.281-0.219-0.5-0.5-0.5h-1c-0.281 0-0.5 0.219-0.5 0.5zM8 12.5v1c0 0.281 0.219 0.5 0.5 0.5h1c0.281 0 0.5-0.219 0.5-0.5v-1c0-0.281-0.219-0.5-0.5-0.5h-1c-0.281 0-0.5 0.219-0.5 0.5zM8 16.5v1c0 0.281 0.219 0.5 0.5 0.5h1c0.281 0 0.5-0.219 0.5-0.5v-1c0-0.281-0.219-0.5-0.5-0.5h-1c-0.281 0-0.5 0.219-0.5 0.5zM6 21.5v-1c0-0.281-0.219-0.5-0.5-0.5h-1c-0.281 0-0.5 0.219-0.5 0.5v1c0 0.281 0.219 0.5 0.5 0.5h1c0.281 0 0.5-0.219 0.5-0.5zM6 17.5v-1c0-0.281-0.219-0.5-0.5-0.5h-1c-0.281 0-0.5 0.219-0.5 0.5v1c0 0.281 0.219 0.5 0.5 0.5h1c0.281 0 0.5-0.219 0.5-0.5zM6 13.5v-1c0-0.281-0.219-0.5-0.5-0.5h-1c-0.281 0-0.5 0.219-0.5 0.5v1c0 0.281 0.219 0.5 0.5 0.5h1c0.281 0 0.5-0.219 0.5-0.5zM6 9.5v-1c0-0.281-0.219-0.5-0.5-0.5h-1c-0.281 0-0.5 0.219-0.5 0.5v1c0 0.281 0.219 0.5 0.5 0.5h1c0.281 0 0.5-0.219 0.5-0.5zM6 5.5v-1c0-0.281-0.219-0.5-0.5-0.5h-1c-0.281 0-0.5 0.219-0.5 0.5v1c0 0.281 0.219 0.5 0.5 0.5h1c0.281 0 0.5-0.219 0.5-0.5zM14 25.5v-3c0-0.281-0.219-0.5-0.5-0.5h-5c-0.281 0-0.5 0.219-0.5 0.5v3c0 0.281 0.219 0.5 0.5 0.5h5c0.281 0 0.5-0.219 0.5-0.5zM14 17.5v-1c0-0.281-0.219-0.5-0.5-0.5h-1c-0.281 0-0.5 0.219-0.5 0.5v1c0 0.281 0.219 0.5 0.5 0.5h1c0.281 0 0.5-0.219 0.5-0.5zM14 13.5v-1c0-0.281-0.219-0.5-0.5-0.5h-1c-0.281 0-0.5 0.219-0.5 0.5v1c0 0.281 0.219 0.5 0.5 0.5h1c0.281 0 0.5-0.219 0.5-0.5zM14 9.5v-1c0-0.281-0.219-0.5-0.5-0.5h-1c-0.281 0-0.5 0.219-0.5 0.5v1c0 0.281 0.219 0.5 0.5 0.5h1c0.281 0 0.5-0.219 0.5-0.5zM14 5.5v-1c0-0.281-0.219-0.5-0.5-0.5h-1c-0.281 0-0.5 0.219-0.5 0.5v1c0 0.281 0.219 0.5 0.5 0.5h1c0.281 0 0.5-0.219 0.5-0.5zM18 21.5v-1c0-0.281-0.219-0.5-0.5-0.5h-1c-0.281 0-0.5 0.219-0.5 0.5v1c0 0.281 0.219 0.5 0.5 0.5h1c0.281 0 0.5-0.219 0.5-0.5zM18 17.5v-1c0-0.281-0.219-0.5-0.5-0.5h-1c-0.281 0-0.5 0.219-0.5 0.5v1c0 0.281 0.219 0.5 0.5 0.5h1c0.281 0 0.5-0.219 0.5-0.5zM18 13.5v-1c0-0.281-0.219-0.5-0.5-0.5h-1c-0.281 0-0.5 0.219-0.5 0.5v1c0 0.281 0.219 0.5 0.5 0.5h1c0.281 0 0.5-0.219 0.5-0.5zM18 9.5v-1c0-0.281-0.219-0.5-0.5-0.5h-1c-0.281 0-0.5 0.219-0.5 0.5v1c0 0.281 0.219 0.5 0.5 0.5h1c0.281 0 0.5-0.219 0.5-0.5zM18 5.5v-1c0-0.281-0.219-0.5-0.5-0.5h-1c-0.281 0-0.5 0.219-0.5 0.5v1c0 0.281 0.219 0.5 0.5 0.5h1c0.281 0 0.5-0.219 0.5-0.5z"></path>
</symbol>
<symbol id="icon-file-image-o" viewBox="0 0 24 28">
<path d="M22.937 5.938c0.578 0.578 1.062 1.734 1.062 2.562v18c0 0.828-0.672 1.5-1.5 1.5h-21c-0.828 0-1.5-0.672-1.5-1.5v-25c0-0.828 0.672-1.5 1.5-1.5h14c0.828 0 1.984 0.484 2.562 1.062zM16 2.125v5.875h5.875c-0.094-0.266-0.234-0.531-0.344-0.641l-4.891-4.891c-0.109-0.109-0.375-0.25-0.641-0.344zM22 26v-16h-6.5c-0.828 0-1.5-0.672-1.5-1.5v-6.5h-12v24h20zM20 19v5h-16v-3l3-3 2 2 6-6zM7 16c-1.656 0-3-1.344-3-3s1.344-3 3-3 3 1.344 3 3-1.344 3-3 3z"></path>
</symbol>
<symbol id="icon-attach_file" viewBox="0 0 24 24">
<path d="M16.5 6h1.5v11.484q0 2.297-1.594 3.914t-3.891 1.617-3.914-1.617-1.617-3.914v-12.469q0-1.641 1.195-2.836t2.836-1.195 2.813 1.195 1.172 2.836v10.5q0 1.031-0.727 1.758t-1.758 0.727-1.781-0.727-0.75-1.758v-9.516h1.5v9.516q0 0.422 0.305 0.703t0.727 0.281 0.703-0.281 0.281-0.703v-10.5q0-1.031-0.727-1.781t-1.758-0.75-1.781 0.75-0.75 1.781v12.469q0 1.641 1.195 2.836t2.836 1.195 2.813-1.195 1.172-2.836v-11.484z"></path>
</symbol>
<symbol id="icon-insert_invitation" viewBox="0 0 24 24">
<path d="M18.984 18.984v-10.969h-13.969v10.969h13.969zM15.984 0.984h2.016v2.016h0.984q0.797 0 1.406 0.609t0.609 1.406v13.969q0 0.797-0.609 1.406t-1.406 0.609h-13.969q-0.844 0-1.43-0.586t-0.586-1.43v-13.969q0-0.797 0.586-1.406t1.43-0.609h0.984v-2.016h2.016v2.016h7.969v-2.016zM17.016 12v5.016h-5.016v-5.016h5.016z"></path>
</symbol>
<symbol id="icon-insert_chart_outlined" viewBox="0 0 24 24">
<path d="M19.5 3q0.797 0 1.406 0.609t0.609 1.406v13.969q0 0.797-0.609 1.406t-1.406 0.609h-15q-0.797 0-1.406-0.609t-0.609-1.406v-13.969q0-0.797 0.609-1.406t1.406-0.609h15zM19.5 19.078v-14.063h-15v14.063h15zM17.016 17.016h-2.016v-4.031h2.016v4.031zM12.984 17.016h-1.969v-10.031h1.969v10.031zM9 17.016h-2.016v-7.031h2.016v7.031z"></path>
</symbol>
<symbol id="icon-file_upload" viewBox="0 0 24 24">
<path d="M5.016 18h13.969v2.016h-13.969v-2.016zM9 15.984v-6h-3.984l6.984-6.984 6.984 6.984h-3.984v6h-6z"></path>
</symbol>
<symbol id="icon-location_city" viewBox="0 0 24 24">
<path d="M18.984 15v-2.016h-1.969v2.016h1.969zM18.984 18.984v-1.969h-1.969v1.969h1.969zM12.984 6.984v-1.969h-1.969v1.969h1.969zM12.984 11.016v-2.016h-1.969v2.016h1.969zM12.984 15v-2.016h-1.969v2.016h1.969zM12.984 18.984v-1.969h-1.969v1.969h1.969zM6.984 11.016v-2.016h-1.969v2.016h1.969zM6.984 15v-2.016h-1.969v2.016h1.969zM6.984 18.984v-1.969h-1.969v1.969h1.969zM15 11.016h6v9.984h-18v-14.016h6v-1.969l3-3 3 3v6z"></path>
</symbol>
<symbol id="icon-person" viewBox="0 0 24 24">
<path d="M12 14.016q2.531 0 5.273 1.102t2.742 2.883v2.016h-16.031v-2.016q0-1.781 2.742-2.883t5.273-1.102zM12 12q-1.641 0-2.813-1.172t-1.172-2.813 1.172-2.836 2.813-1.195 2.813 1.195 1.172 2.836-1.172 2.813-2.813 1.172z"></path>
</symbol>
<symbol id="icon-dashboard" viewBox="0 0 24 24">
<path d="M12.984 3h8.016v6h-8.016v-6zM12.984 21v-9.984h8.016v9.984h-8.016zM3 21v-6h8.016v6h-8.016zM3 12.984v-9.984h8.016v9.984h-8.016z"></path>
</symbol>
<symbol id="icon-add_chart" viewBox="0 0 24 24">
<path d="M18 18.984v-4.969h2.016v4.969q0 0.797-0.609 1.406t-1.406 0.609h-14.016q-0.797 0-1.383-0.609t-0.586-1.406v-13.969q0-0.797 0.586-1.406t1.383-0.609h12v2.016h-12v13.969h14.016zM20.016 6.984h3v2.016h-3v3h-2.016v-3h-3v-2.016h3v-3h2.016v3zM9.984 6.984h2.016v9.984h-2.016v-9.984zM14.016 12.984h1.969v3.984h-1.969v-3.984zM6 9.984h2.016v6.984h-2.016v-6.984z"></path>
</symbol>
<symbol id="icon-home_work" viewBox="0 0 24 24">
<path d="M9.984 3h13.031v18h-6v-3.984h1.969v-2.016h-1.969v-2.016h1.969v-1.969h-1.969v-1.828l-2.016-1.359v-0.844h-1.266q-1.594-1.031-3.75-2.484v-1.5zM8.156 5.719l6.844 4.547v10.734h-5.016v-8.016h-3.984v8.016h-5.016v-10.5z"></path>
</symbol>
<symbol id="icon-apartment" viewBox="0 0 24 24">
<path d="M18.984 15v-2.016h-1.969v2.016h1.969zM18.984 18.984v-1.969h-1.969v1.969h1.969zM15 6.984v-1.969h-2.016v1.969h2.016zM15 11.016v-2.016h-2.016v2.016h2.016zM15 15v-2.016h-2.016v2.016h2.016zM11.016 6.984v-1.969h-2.016v1.969h2.016zM11.016 11.016v-2.016h-2.016v2.016h2.016zM11.016 15v-2.016h-2.016v2.016h2.016zM6.984 11.016v-2.016h-1.969v2.016h1.969zM6.984 15v-2.016h-1.969v2.016h1.969zM6.984 18.984v-1.969h-1.969v1.969h1.969zM17.016 11.016h3.984v9.984h-8.016v-3.984h-1.969v3.984h-8.016v-14.016h3.984v-3.984h10.031v8.016z"></path>
</symbol>
<symbol id="icon-upload1" viewBox="0 0 20 20">
<path d="M8 12h4v-6h3l-5-5-5 5h3v6zM19.338 13.532c-0.21-0.224-1.611-1.723-2.011-2.114-0.265-0.259-0.644-0.418-1.042-0.418h-1.757l3.064 2.994h-3.544c-0.102 0-0.194 0.052-0.24 0.133l-0.816 1.873h-5.984l-0.816-1.873c-0.046-0.081-0.139-0.133-0.24-0.133h-3.544l3.063-2.994h-1.756c-0.397 0-0.776 0.159-1.042 0.418-0.4 0.392-1.801 1.891-2.011 2.114-0.489 0.521-0.758 0.936-0.63 1.449l0.561 3.074c0.128 0.514 0.691 0.936 1.252 0.936h16.312c0.561 0 1.124-0.422 1.252-0.936l0.561-3.074c0.126-0.513-0.142-0.928-0.632-1.449z"></path>
</symbol>
<symbol id="icon-attachment" viewBox="0 0 20 20">
<path d="M5.602 19.8c-1.293 0-2.504-0.555-3.378-1.44-1.695-1.716-2.167-4.711 0.209-7.116 1.391-1.408 6.966-7.053 9.748-9.87 0.988-1 2.245-1.387 3.448-1.060 1.183 0.32 2.151 1.301 2.468 2.498 0.322 1.22-0.059 2.493-1.046 3.493l-9.323 9.44c-0.532 0.539-1.134 0.858-1.738 0.922-0.599 0.064-1.17-0.13-1.57-0.535-0.724-0.736-0.828-2.117 0.378-3.337l6.548-6.63c0.269-0.272 0.705-0.272 0.974 0s0.269 0.714 0 0.986l-6.549 6.631c-0.566 0.572-0.618 1.119-0.377 1.364 0.106 0.106 0.266 0.155 0.451 0.134 0.283-0.029 0.606-0.216 0.909-0.521l9.323-9.439c0.64-0.648 0.885-1.41 0.69-2.145-0.192-0.725-0.778-1.318-1.493-1.513-0.726-0.197-1.48 0.052-2.12 0.7-2.782 2.818-8.356 8.462-9.748 9.87-1.816 1.839-1.381 3.956-0.209 5.143 1.173 1.187 3.262 1.629 5.079-0.212l9.748-9.87c0.269-0.272 0.705-0.272 0.974 0s0.269 0.714 0 0.987l-9.748 9.87c-1.149 1.162-2.436 1.65-3.648 1.65z"></path>
</symbol>
<symbol id="icon-bar-graph" viewBox="0 0 20 20">
<path d="M17 1h-2c-0.552 0-1 0.447-1 1v16.992h4v-16.992c0-0.553-0.447-1-1-1zM11 7h-2c-0.552 0-1 0.447-1 1v10.992h4v-10.992c0-0.553-0.447-1-1-1zM5 13h-2c-0.552 0-1 0.447-1 1v4.992h4v-4.992c0-0.553-0.447-1-1-1z"></path>
</symbol>
<symbol id="icon-calculator" viewBox="0 0 20 20">
<path d="M14.6 1h-9.202c-0.769 0-1.398 0.629-1.398 1.4v15.2c0 0.77 0.629 1.4 1.398 1.4h9.202c0.769 0 1.4-0.631 1.4-1.4v-15.2c0-0.771-0.631-1.4-1.4-1.4zM7 12c0.689 0 1.25 0.447 1.25 1s-0.561 1-1.25 1c-0.69 0-1.25-0.447-1.25-1s0.56-1 1.25-1zM5.75 10c0-0.553 0.56-1 1.25-1s1.25 0.447 1.25 1-0.561 1-1.25 1c-0.69 0-1.25-0.447-1.25-1zM7 15c0.689 0 1.25 0.447 1.25 1s-0.561 1-1.25 1c-0.69 0-1.25-0.447-1.25-1s0.56-1 1.25-1zM10 12c0.689 0 1.25 0.447 1.25 1s-0.561 1-1.25 1c-0.69 0-1.25-0.447-1.25-1s0.56-1 1.25-1zM8.75 10c0-0.553 0.56-1 1.25-1s1.25 0.447 1.25 1-0.561 1-1.25 1c-0.69 0-1.25-0.447-1.25-1zM10 15c0.689 0 1.25 0.447 1.25 1s-0.561 1-1.25 1c-0.69 0-1.25-0.447-1.25-1s0.56-1 1.25-1zM13 12c0.689 0 1.25 0.447 1.25 1s-0.561 1-1.25 1c-0.69 0-1.25-0.447-1.25-1s0.56-1 1.25-1zM11.75 10c0-0.553 0.56-1 1.25-1s1.25 0.447 1.25 1-0.561 1-1.25 1c-0.69 0-1.25-0.447-1.25-1zM13 15c0.689 0 1.25 0.447 1.25 1s-0.561 1-1.25 1c-0.69 0-1.25-0.447-1.25-1s0.56-1 1.25-1zM5 7v-3h10v3h-10z"></path>
</symbol>
<symbol id="icon-chat" viewBox="0 0 20 20">
<path d="M5.8 12.2v-6.2h-3.8c-1.1 0-2 0.9-2 2v6c0 1.1 0.9 2 2 2h1v3l3-3h5c1.1 0 2-0.9 2-2v-1.82c-0.064 0.014-0.132 0.021-0.2 0.021l-7-0.001zM18 1h-9c-1.1 0-2 0.9-2 2v8h7l3 3v-3h1c1.1 0 2-0.899 2-2v-6c0-1.1-0.9-2-2-2z"></path>
</symbol>
<symbol id="icon-log-out" viewBox="0 0 20 20">
<path d="M19 10l-6-5v3h-7v4h7v3l6-5zM3 3h8v-2h-8c-1.1 0-2 0.9-2 2v14c0 1.1 0.9 2 2 2h8v-2h-8v-14z"></path>
</symbol>
<symbol id="icon-documents" viewBox="0 0 20 20">
<path d="M14 5h-4v2h4v-2zM14 8h-4v1h4v-1zM9 5h-3v4h3v-4zM9 11h5v-1h-5v1zM12 13h2v-1h-2v1zM14 14h-8v1h8v-1zM11 12h-5v1h5v-1zM8 10h-2v1h2v-1zM17 1h-14c-0.553 0-1 0.447-1 1v16c0 0.552 0.447 1 1 1h14c0.553 0 1-0.448 1-1v-16c0-0.552-0.447-1-1-1zM16 17h-12v-14h12v14z"></path>
</symbol>
<symbol id="icon-pie-chart" viewBox="0 0 20 20">
<path d="M11 0.958v9.039c0 0.554-0.449 1.003-1.003 1.003h-9.039c0.498 4.555 4.355 8.1 9.042 8.1 5.026 0 9.1-4.074 9.1-9.1 0-4.688-3.545-8.544-8.1-9.042zM9 0.958c-4.226 0.462-7.58 3.816-8.042 8.042h8.042v-8.042z"></path>
</symbol>
<symbol id="icon-home" viewBox="0 0 32 32">
<path d="M32 18.451l-16-12.42-16 12.42v-5.064l16-12.42 16 12.42zM28 18v12h-8v-8h-8v8h-8v-12l12-9z"></path>
</symbol>
<symbol id="icon-district" viewBox="0 0 32 32">
<path d="M0 32h16v-32h-16v32zM10 4h4v4h-4v-4zM10 12h4v4h-4v-4zM10 20h4v4h-4v-4zM2 4h4v4h-4v-4zM2 12h4v4h-4v-4zM2 20h4v4h-4v-4zM18 10h14v2h-14zM18 32h4v-8h6v8h4v-18h-14z"></path>
</symbol>
<symbol id="icon-images" viewBox="0 0 36 32">
<path d="M34 4h-2v-2c0-1.1-0.9-2-2-2h-28c-1.1 0-2 0.9-2 2v24c0 1.1 0.9 2 2 2h2v2c0 1.1 0.9 2 2 2h28c1.1 0 2-0.9 2-2v-24c0-1.1-0.9-2-2-2zM4 6v20h-1.996c-0.001-0.001-0.003-0.002-0.004-0.004v-23.993c0.001-0.001 0.002-0.003 0.004-0.004h27.993c0.001 0.001 0.003 0.002 0.004 0.004v1.996h-24c-1.1 0-2 0.9-2 2v0zM34 29.996c-0.001 0.001-0.002 0.003-0.004 0.004h-27.993c-0.001-0.001-0.003-0.002-0.004-0.004v-23.993c0.001-0.001 0.002-0.003 0.004-0.004h27.993c0.001 0.001 0.003 0.002 0.004 0.004v23.993z"></path>
<path d="M30 11c0 1.657-1.343 3-3 3s-3-1.343-3-3 1.343-3 3-3 3 1.343 3 3z"></path>
<path d="M32 28h-24v-4l7-12 8 10h2l7-6z"></path>
</symbol>
<symbol id="icon-file-picture" viewBox="0 0 32 32">
<path d="M26 28h-20v-4l6-10 8.219 10 5.781-4v8z"></path>
<path d="M26 15c0 1.657-1.343 3-3 3s-3-1.343-3-3 1.343-3 3-3c1.657 0 3 1.343 3 3z"></path>
<path d="M28.681 7.159c-0.694-0.947-1.662-2.053-2.724-3.116s-2.169-2.030-3.116-2.724c-1.612-1.182-2.393-1.319-2.841-1.319h-15.5c-1.378 0-2.5 1.121-2.5 2.5v27c0 1.378 1.122 2.5 2.5 2.5h23c1.378 0 2.5-1.122 2.5-2.5v-19.5c0-0.448-0.137-1.23-1.319-2.841zM24.543 5.457c0.959 0.959 1.712 1.825 2.268 2.543h-4.811v-4.811c0.718 0.556 1.584 1.309 2.543 2.268zM28 29.5c0 0.271-0.229 0.5-0.5 0.5h-23c-0.271 0-0.5-0.229-0.5-0.5v-27c0-0.271 0.229-0.5 0.5-0.5 0 0 15.499-0 15.5 0v7c0 0.552 0.448 1 1 1h7v19.5z"></path>
</symbol>
<symbol id="icon-calendar" viewBox="0 0 32 32">
<path d="M10 12h4v4h-4zM16 12h4v4h-4zM22 12h4v4h-4zM4 24h4v4h-4zM10 24h4v4h-4zM16 24h4v4h-4zM10 18h4v4h-4zM16 18h4v4h-4zM22 18h4v4h-4zM4 18h4v4h-4zM26 0v2h-4v-2h-14v2h-4v-2h-4v32h30v-32h-4zM28 30h-26v-22h26v22z"></path>
</symbol>
<symbol id="icon-heart1" viewBox="0 0 32 32">
<path d="M23.6 2c-3.363 0-6.258 2.736-7.599 5.594-1.342-2.858-4.237-5.594-7.601-5.594-4.637 0-8.4 3.764-8.4 8.401 0 9.433 9.516 11.906 16.001 21.232 6.13-9.268 15.999-12.1 15.999-21.232 0-4.637-3.763-8.401-8.4-8.401z"></path>
</symbol>
</defs>
</svg>
